<mxfile host="app.diagrams.net" modified="2023-08-27T19:38:17.971Z" agent="Mozilla/5.0 (Windows NT 10.0; Win64; x64) AppleWebKit/537.36 (KHTML, like Gecko) Chrome/116.0.0.0 Safari/537.36 Edg/116.0.1938.62" etag="Jydee8JirVhJFPYjEv35" version="21.6.9" type="device">
  <diagram name="Página-1" id="9RwIty7-zqVJabVFQrFA">
    <mxGraphModel dx="880" dy="522" grid="1" gridSize="10" guides="1" tooltips="1" connect="1" arrows="1" fold="1" page="1" pageScale="1" pageWidth="827" pageHeight="1169" math="0" shadow="0">
      <root>
        <mxCell id="0" />
        <mxCell id="1" parent="0" />
        <mxCell id="rqNmHsUleUSDpxDdtPXl-3" value="" style="edgeStyle=orthogonalEdgeStyle;rounded=0;orthogonalLoop=1;jettySize=auto;html=1;" parent="1" source="rqNmHsUleUSDpxDdtPXl-1" target="rqNmHsUleUSDpxDdtPXl-2" edge="1">
          <mxGeometry relative="1" as="geometry" />
        </mxCell>
        <mxCell id="rqNmHsUleUSDpxDdtPXl-1" value="&lt;h1&gt;&lt;font style=&quot;font-size: 19px;&quot;&gt;Exercício 05&lt;/font&gt;&lt;/h1&gt;" style="text;html=1;strokeColor=none;fillColor=none;align=center;verticalAlign=middle;whiteSpace=wrap;rounded=0;" parent="1" vertex="1">
          <mxGeometry width="120" height="60" as="geometry" />
        </mxCell>
        <mxCell id="rqNmHsUleUSDpxDdtPXl-5" value="" style="edgeStyle=orthogonalEdgeStyle;rounded=0;orthogonalLoop=1;jettySize=auto;html=1;" parent="1" source="rqNmHsUleUSDpxDdtPXl-2" target="rqNmHsUleUSDpxDdtPXl-4" edge="1">
          <mxGeometry relative="1" as="geometry" />
        </mxCell>
        <mxCell id="rqNmHsUleUSDpxDdtPXl-2" value="" style="ellipse;whiteSpace=wrap;html=1;fillColor=#d5e8d4;strokeColor=#82b366;gradientColor=#97d077;" parent="1" vertex="1">
          <mxGeometry x="240" y="5" width="50" height="50" as="geometry" />
        </mxCell>
        <mxCell id="rqNmHsUleUSDpxDdtPXl-9" value="" style="edgeStyle=orthogonalEdgeStyle;rounded=0;orthogonalLoop=1;jettySize=auto;html=1;" parent="1" source="rqNmHsUleUSDpxDdtPXl-4" target="rqNmHsUleUSDpxDdtPXl-8" edge="1">
          <mxGeometry relative="1" as="geometry" />
        </mxCell>
        <mxCell id="rqNmHsUleUSDpxDdtPXl-4" value="Leia &quot;quantidade de KWh consumida no mês&quot; ${qtdKwh}" style="whiteSpace=wrap;html=1;fillColor=none;fontColor=#333333;strokeColor=#666666;" parent="1" vertex="1">
          <mxGeometry x="335" width="120" height="60" as="geometry" />
        </mxCell>
        <mxCell id="rqNmHsUleUSDpxDdtPXl-11" value="" style="edgeStyle=orthogonalEdgeStyle;rounded=0;orthogonalLoop=1;jettySize=auto;html=1;" parent="1" source="rqNmHsUleUSDpxDdtPXl-8" target="rqNmHsUleUSDpxDdtPXl-10" edge="1">
          <mxGeometry relative="1" as="geometry" />
        </mxCell>
        <mxCell id="rqNmHsUleUSDpxDdtPXl-8" value="Receber sinal para calcular" style="whiteSpace=wrap;html=1;fillColor=none;strokeColor=#666666;fontColor=#333333;rounded=1;" parent="1" vertex="1">
          <mxGeometry x="510" y="10" width="95" height="40" as="geometry" />
        </mxCell>
        <mxCell id="rqNmHsUleUSDpxDdtPXl-15" style="edgeStyle=orthogonalEdgeStyle;rounded=0;orthogonalLoop=1;jettySize=auto;html=1;exitX=0.5;exitY=1;exitDx=0;exitDy=0;entryX=0.5;entryY=0;entryDx=0;entryDy=0;" parent="1" source="rqNmHsUleUSDpxDdtPXl-10" target="rqNmHsUleUSDpxDdtPXl-12" edge="1">
          <mxGeometry relative="1" as="geometry" />
        </mxCell>
        <mxCell id="rqNmHsUleUSDpxDdtPXl-10" value="calcule valor ${qtdKwh} * 0,85 = ${KwhFinal}" style="whiteSpace=wrap;html=1;fillColor=none;strokeColor=#666666;fontColor=#333333;rounded=0;glass=0;" parent="1" vertex="1">
          <mxGeometry x="672.5" width="120" height="60" as="geometry" />
        </mxCell>
        <mxCell id="rqNmHsUleUSDpxDdtPXl-16" style="edgeStyle=orthogonalEdgeStyle;rounded=0;orthogonalLoop=1;jettySize=auto;html=1;" parent="1" source="rqNmHsUleUSDpxDdtPXl-12" target="rqNmHsUleUSDpxDdtPXl-17" edge="1">
          <mxGeometry relative="1" as="geometry">
            <mxPoint x="630" y="190" as="targetPoint" />
          </mxGeometry>
        </mxCell>
        <mxCell id="rqNmHsUleUSDpxDdtPXl-26" value="" style="edgeStyle=orthogonalEdgeStyle;rounded=0;orthogonalLoop=1;jettySize=auto;html=1;" parent="1" source="rqNmHsUleUSDpxDdtPXl-12" target="rqNmHsUleUSDpxDdtPXl-25" edge="1">
          <mxGeometry relative="1" as="geometry">
            <Array as="points">
              <mxPoint x="733" y="350" />
            </Array>
          </mxGeometry>
        </mxCell>
        <mxCell id="rqNmHsUleUSDpxDdtPXl-12" value="" style="rhombus;whiteSpace=wrap;html=1;fillColor=none;strokeColor=#666666;fontColor=#333333;rounded=0;glass=0;" parent="1" vertex="1">
          <mxGeometry x="692.5" y="150" width="80" height="80" as="geometry" />
        </mxCell>
        <mxCell id="rqNmHsUleUSDpxDdtPXl-22" value="" style="edgeStyle=orthogonalEdgeStyle;rounded=0;orthogonalLoop=1;jettySize=auto;html=1;" parent="1" source="rqNmHsUleUSDpxDdtPXl-17" target="rqNmHsUleUSDpxDdtPXl-21" edge="1">
          <mxGeometry relative="1" as="geometry" />
        </mxCell>
        <mxCell id="rqNmHsUleUSDpxDdtPXl-17" value="SE ${KwhFinal} &amp;lt;= 100" style="text;html=1;strokeColor=none;fillColor=none;align=center;verticalAlign=middle;whiteSpace=wrap;rounded=0;" parent="1" vertex="1">
          <mxGeometry x="560" y="167.5" width="90" height="45" as="geometry" />
        </mxCell>
        <mxCell id="rqNmHsUleUSDpxDdtPXl-27" style="edgeStyle=orthogonalEdgeStyle;rounded=0;orthogonalLoop=1;jettySize=auto;html=1;entryX=0;entryY=0.5;entryDx=0;entryDy=0;" parent="1" source="rqNmHsUleUSDpxDdtPXl-21" target="rqNmHsUleUSDpxDdtPXl-25" edge="1">
          <mxGeometry relative="1" as="geometry">
            <Array as="points">
              <mxPoint x="500" y="350" />
            </Array>
          </mxGeometry>
        </mxCell>
        <mxCell id="rqNmHsUleUSDpxDdtPXl-21" value="subtrair 10% de ${KWhFinal} em ${KWhFinal}&amp;nbsp;" style="whiteSpace=wrap;html=1;" parent="1" vertex="1">
          <mxGeometry x="445" y="270" width="115" height="40" as="geometry" />
        </mxCell>
        <mxCell id="rqNmHsUleUSDpxDdtPXl-31" value="" style="edgeStyle=orthogonalEdgeStyle;rounded=0;orthogonalLoop=1;jettySize=auto;html=1;" parent="1" source="rqNmHsUleUSDpxDdtPXl-25" target="rqNmHsUleUSDpxDdtPXl-30" edge="1">
          <mxGeometry relative="1" as="geometry" />
        </mxCell>
        <mxCell id="rqNmHsUleUSDpxDdtPXl-25" value="Exiba em um alert: &quot;o valor final da conta é de: R$&quot; ${KWhFinal}" style="whiteSpace=wrap;html=1;fillColor=none;strokeColor=#666666;fontColor=#333333;rounded=0;glass=0;" parent="1" vertex="1">
          <mxGeometry x="590" y="320" width="120" height="60" as="geometry" />
        </mxCell>
        <mxCell id="rqNmHsUleUSDpxDdtPXl-30" value="" style="ellipse;whiteSpace=wrap;html=1;fillColor=#e6d0de;strokeColor=#996185;rounded=0;glass=0;gradientColor=#d5739d;" parent="1" vertex="1">
          <mxGeometry x="622.5" y="430" width="55" height="50" as="geometry" />
        </mxCell>
      </root>
    </mxGraphModel>
  </diagram>
</mxfile>
